#!OML:ASF E:\emotionWalksFemale\Project 1\Capture day 1\Session 1\Female1.ASF
:FULLY-SPECIFIED
:DEGREES
386
root 9.79021 15.6274 11.022 360.812 -70.5256 -0.247653
lowerback 9.24926 2.84218 2.04312
upperback -4.0502 3.96898 -1.18796
thorax -9.28733 1.75174 -3.08711
lowerneck -2.3575 -10.2484 -13.8751
upperneck 5.03208 -13.7794 10.1874
head 3.54719 -6.85276 4.59209
rclavicle 3.35698e-014 5.96354e-015
rhumerus -41.6824 1.25666 -86.3748
rradius 31.4992
rwrist 42.0252
rhand -4.50927 -62.1486
rfingers 7.12502
rthumb 21.2648 451.002
lclavicle 3.35698e-014 5.96354e-015
lhumerus -44.2655 3.89806 81.5788
lradius 44.7331
lwrist -6.41568
lhand -4.17395 -35.5483
lfingers 7.12502
lthumb 21.5869 -6.73146
rfemur 3.11138 14.4703 29.4638
rtibia 7.36593
rfoot -18.205 -30.4563
rtoes 15.145
lfemur -11.2908 -26.4462 -19.7395
ltibia 24.3628
lfoot -17.1348 12.7626
ltoes -34.7339
387
root 9.78608 15.6298 11.0096 361.051 -70.9148 -0.405467
lowerback 9.01701 2.91076 1.72341
upperback -4.04074 4.0238 -1.08406
thorax -9.16583 1.80475 -2.79097
lowerneck -2.45124 -10.1649 -13.7823
upperneck 5.06177 -13.6547 10.1187
head 3.54519 -6.78868 4.56338
rclavicle -3.46382e-014 -1.45113e-014
rhumerus -42.0586 1.57446 -86.153
rradius 30.4316
rwrist 43.7881
rhand -4.12465 -61.9178
rfingers 7.12502
rthumb 21.6343 450.729
lclavicle -3.46382e-014 -1.45113e-014
lhumerus -42.9093 2.90268 82.0262
lradius 44.9599
lwrist -6.32578
lhand -3.88799 -35.9474
lfingers 7.12502
lthumb 21.8615 -7.1624
rfemur 3.16516 14.7548 29.5594
rtibia 7.09972
rfoot -17.9516 -30.442
rtoes 15.2534
lfemur -11.3451 -26.0882 -19.6165
ltibia 24.3843
lfoot -17.1757 12.86
ltoes -35.3806
388
root 9.78637 15.6308 11.012 361.032 -70.6485 -0.546527
lowerback 9.0055 2.75188 1.83979
upperback -3.96056 3.82679 -1.06747
thorax -9.0759 1.70593 -2.80241
lowerneck -2.45972 -10.0911 -13.8052
upperneck 5.03358 -13.5572 10.196
head 3.53359 -6.73863 4.59898
rclavicle -3.26504e-014 8.94531e-015
rhumerus -42.4574 1.65047 -85.9437
rradius 29.8856
rwrist 45.3255
rhand -3.48877 -61.7944
rfingers 7.12502
rthumb 22.2448 450.534
lclavicle -3.26504e-014 8.94531e-015
lhumerus -41.6314 1.83997 82.4236
lradius 45.263
lwrist -6.18057
lhand -3.80417 -36.1887
lfingers 7.12502
lthumb 21.942 -7.41308
rfemur 3.36537 14.3617 29.6246
rtibia 6.9792
rfoot -17.7092 -30.4836
rtoes 15.5019
lfemur -11.238 -26.1657 -19.6202
ltibia 24.3795
lfoot -17.095 12.696
ltoes -35.6585
389
root 9.78429 15.6342 11.0046 361.107 -70.8296 -0.638526
lowerback 8.92831 2.77816 1.74956
upperback -3.92703 3.84839 -1.07386
thorax -8.99807 1.72386 -2.75585
lowerneck -2.53976 -10.0809 -13.7789
upperneck 5.07303 -13.5446 10.2831
head 3.5615 -6.72767 4.61753
rclavicle -2.09221e-014 6.75868e-015
rhumerus -42.9865 2.37268 -86.5229
rradius 30.095
rwrist 45.2758
rhand -2.60087 -63.0485
rfingers 7.12502
rthumb 23.097 451.684
lclavicle -2.09221e-014 6.75868e-015
lhumerus -40.4001 0.684607 82.699
lradius 45.704
lwrist -5.55507
lhand -3.70765 -36.3198
lfingers 7.12502
lthumb 22.0347 -7.55504
rfemur 3.35428 14.4333 29.6519
rtibia 6.97518
rfoot -17.4339 -30.5269
rtoes 15.407
lfemur -11.1993 -26.0782 -19.5698
ltibia 24.3715
lfoot -17.0947 12.7366
ltoes -35.5086
390
root 9.78637 15.6303 11.0082 360.791 -70.5653 -0.534868
lowerback 9.06079 2.60637 1.80251
upperback -3.79843 3.6255 -1.08951
thorax -8.94344 1.61457 -2.76942
lowerneck -2.74667 -10.0699 -13.7558
upperneck 5.09479 -13.5098 10.3418
head 3.60036 -6.70224 4.62366
rclavicle 1.90958e-014 6.36111e-015
rhumerus -43.4743 2.45489 -86.3035
rradius 30.1325
rwrist 46.5427
rhand -2.24743 -61.7521
rfingers 7.12502
rthumb 23.4361 450.345
lclavicle 1.90958e-014 6.36111e-015
lhumerus -39.2128 -0.0845278 82.8185
lradius 46.2039
lwrist -4.89723
lhand -3.5815 -36.2659
lfingers 7.12502
lthumb 22.1558 -7.51546
rfemur 3.59887 14.0295 29.658
rtibia 6.98972
rfoot -17.8783 -30.3344
rtoes 15.5073
lfemur -10.992 -26.1064 -19.7241
ltibia 24.3794
lfoot -17.0694 12.5857
ltoes -35.7271
391
root 9.78536 15.6246 11.0116 360.343 -70.6993 -0.245607
lowerback 9.11911 2.53428 1.62457
upperback -3.66836 3.50941 -1.05697
thorax -8.85471 1.57283 -2.61495
lowerneck -3.20218 -9.99629 -13.5884
upperneck 5.29615 -13.3581 10.1689
head 3.69384 -6.61596 4.53244
rclavicle 9.03228e-015 1.39149e-015
rhumerus -44.2692 3.80374 -86.846
rradius 31.2056
rwrist 45.3295
rhand -1.41449 -62.0023
rfingers 7.12502
rthumb 24.2349 450.491
lclavicle 9.03228e-015 1.39149e-015
lhumerus -38.1398 -0.302999 82.7507
lradius 46.8504
lwrist -4.62162
lhand -3.29158 -35.9615
lfingers 7.12502
lthumb 22.4341 -7.24441
rfemur 3.81677 14.0265 29.5808
rtibia 6.93592
rfoot -17.7106 -30.4005
rtoes 13.8313
lfemur -10.7342 -26.1524 -19.9659
ltibia 24.4016
lfoot -17.0144 12.8565
ltoes -35.6139
392
root 9.78404 15.6243 11.0141 359.923 -70.8048 0.100674
lowerback 9.18428 2.43119 1.359
upperback -3.64625 3.34064 -1.02178
thorax -8.89445 1.5064 -2.4047
lowerneck -3.5892 -9.87665 -13.3658
upperneck 5.59077 -13.1656 10.0005
head 3.79681 -6.51158 4.44039
rclavicle 5.31749e-015 -1.98785e-016
rhumerus -45.5324 5.67467 -87.5267
rradius 32.9204
rwrist 42.8127
rhand -0.98839 -62.3418
rfingers 7.12502
rthumb 24.6433 450.775
lclavicle 5.31749e-015 -1.98785e-016
lhumerus -37.2706 -0.367294 82.5874
lradius 47.4723
lwrist -4.16783
lhand -2.81448 -35.5752
lfingers 7.12502
lthumb 22.892 -6.91399
rfemur 3.82963 14.0098 29.4755
rtibia 7.13796
rfoot -17.5513 -30.5771
rtoes 12.6221
lfemur -10.5441 -26.5054 -20.1178
ltibia 24.3851
lfoot -17.3241 12.6038
ltoes -30.5896
393
root 9.78379 15.6294 11.013 359.953 -70.8738 0.105231
lowerback 9.14013 2.27185 1.22194
upperback -3.69317 3.1094 -1.01067
thorax -8.9382 1.40102 -2.27796
lowerneck -3.74929 -9.72742 -13.2683
upperneck 5.71512 -12.9766 10.1839
head 3.84482 -6.40711 4.48867
rclavicle 5.94739e-014 4.96962e-015
rhumerus -46.0225 6.02152 -88.0014
rradius 33.7083
rwrist 41.5873
rhand -1.22355 -62.3592
rfingers 7.12502
rthumb 24.4179 450.823
lclavicle 5.94739e-014 4.96962e-015
lhumerus -36.4046 -0.483258 82.2645
lradius 47.91
lwrist -3.53957
lhand -2.63968 -35.2781
lfingers 7.12502
lthumb 23.0597 -6.63783
rfemur 3.66304 13.9843 29.4765
rtibia 7.44166
rfoot -17.8 -30.574
rtoes 13.1481
lfemur -10.5154 -26.6756 -20.0462
ltibia 24.3313
lfoot -17.7766 12.0598
ltoes -25.4216
394
root 9.77835 15.6275 11.0158 359.821 -71.1088 0.211074
lowerback 8.99464 2.14512 1.14193
upperback -3.67233 2.92244 -1.06909
thorax -8.83926 1.31486 -2.25669
lowerneck -3.83909 -9.55136 -13.1453
upperneck 5.76076 -12.7607 10.4074
head 3.85525 -6.28944 4.55309
rclavicle 1.65612e-014 -1.19271e-015
rhumerus -46.6881 7.32225 -89.0557
rradius 34.8195
rwrist 38.9358
rhand -1.7044 -62.6094
rfingers 7.12502
rthumb 23.9569 451.135
lclavicle 1.65612e-014 -1.19271e-015
lhumerus -35.621 -0.768869 81.8054
lradius 48.5265
lwrist -2.95265
lhand -2.72063 -34.9773
lfingers 7.12502
lthumb 22.9821 -6.32732
rfemur 3.71605 14.1047 29.4584
rtibia 7.55801
rfoot -18.2093 -30.38
rtoes 14.3482
lfemur -10.407 -26.3986 -20.1802
ltibia 24.2902
lfoot -17.5015 12.6648
ltoes -29.1872
